<?xml version="1.0" encoding="UTF-8" standalone="no"?>
<!-- Created with Inkscape (http://www.inkscape.org/) -->

<svg
     xmlns:dc="http://purl.org/dc/elements/1.1/"
     xmlns:cc="http://creativecommons.org/ns#"
     xmlns:rdf="http://www.w3.org/1999/02/22-rdf-syntax-ns#"
     xmlns:svg="http://www.w3.org/2000/svg"
     xmlns="http://www.w3.org/2000/svg"
     xmlns:xlink="http://www.w3.org/1999/xlink"
     xmlns:sodipodi="http://sodipodi.sourceforge.net/DTD/sodipodi-0.dtd"
     xmlns:inkscape="http://www.inkscape.org/namespaces/inkscape"
     width="84"
     height="24.115728"
     id="svg3199"
     version="1.1"
     inkscape:version="0.48.5 r10040"
     sodipodi:docname="GlitchSimplifiedSpaceshipLight.svg">
    <defs
         id="defs3201">
        <radialGradient
             inkscape:collect="always"
             xlink:href="#SVGID_4_"
             id="radialGradient3143"
             gradientUnits="userSpaceOnUse"
             gradientTransform="matrix(0,-3.74481,57.4454,0,-3005.96,1031.68)"
             cx="138.8"
             cy="57.75"
             r="6.0370002" />
        <radialGradient
             gradientUnits="userSpaceOnUse"
             gradientTransform="matrix(0,-1,15.34,0,-747,196.5)"
             r="6.0370002"
             cy="57.75"
             cx="138.8"
             id="SVGID_4_">
            <stop
                 id="stop88"
                 style="stop-color:#CAFFFF;stop-opacity:0.8471"
                 offset="0" />
            <stop
                 id="stop90"
                 style="stop-color:#BEF0F0;stop-opacity:0.4"
                 offset="0.2667" />
            <stop
                 id="stop92"
                 style="stop-color:#B7E6E6;stop-opacity:0.0941"
                 offset="0.5922" />
            <stop
                 id="stop94"
                 style="stop-color:#B4E3E3;stop-opacity:0"
                 offset="1" />
        </radialGradient>
        <radialGradient
             inkscape:collect="always"
             xlink:href="#SVGID_3_"
             id="radialGradient3146"
             gradientUnits="userSpaceOnUse"
             gradientTransform="matrix(0,-3.74481,56.6215,0,-3530.61,1064.26)"
             cx="137.5"
             cy="67.75"
             r="6.0370002" />
        <radialGradient
             gradientUnits="userSpaceOnUse"
             gradientTransform="matrix(0,-1,15.12,0,-887.1,205.2)"
             r="6.0370002"
             cy="67.75"
             cx="137.5"
             id="SVGID_3_">
            <stop
                 id="stop77"
                 style="stop-color:#CAFFFF;stop-opacity:0.8471"
                 offset="0" />
            <stop
                 id="stop79"
                 style="stop-color:#BEF0F0;stop-opacity:0.4"
                 offset="0.2667" />
            <stop
                 id="stop81"
                 style="stop-color:#B7E6E6;stop-opacity:0.0941"
                 offset="0.5922" />
            <stop
                 id="stop83"
                 style="stop-color:#B4E3E3;stop-opacity:0"
                 offset="1" />
        </radialGradient>
        <radialGradient
             inkscape:collect="always"
             xlink:href="#SVGID_2_"
             id="radialGradient3149"
             gradientUnits="userSpaceOnUse"
             gradientTransform="matrix(0,-3.74481,62.2762,0,-4436.48,1103.96)"
             cx="139.5"
             cy="76.25"
             r="5.5250001" />
        <radialGradient
             gradientUnits="userSpaceOnUse"
             gradientTransform="matrix(0,-1,16.63,0,-1129,215.8)"
             r="5.5250001"
             cy="76.25"
             cx="139.5"
             id="SVGID_2_">
            <stop
                 id="stop66"
                 style="stop-color:#CAFFFF;stop-opacity:0.8471"
                 offset="0" />
            <stop
                 id="stop68"
                 style="stop-color:#BEF0F0;stop-opacity:0.4"
                 offset="0.2667" />
            <stop
                 id="stop70"
                 style="stop-color:#B7E6E6;stop-opacity:0.0941"
                 offset="0.5922" />
            <stop
                 id="stop72"
                 style="stop-color:#B4E3E3;stop-opacity:0"
                 offset="1" />
        </radialGradient>
    </defs>
    <sodipodi:namedview
         id="base"
         pagecolor="#ffffff"
         bordercolor="#666666"
         borderopacity="1.0"
         inkscape:pageopacity="0.0"
         inkscape:pageshadow="2"
         inkscape:zoom="0.9"
         inkscape:cx="325.49566"
         inkscape:cy="62.938158"
         inkscape:document-units="px"
         inkscape:current-layer="layer1"
         showgrid="false"
         fit-margin-top="0"
         fit-margin-left="0"
         fit-margin-right="0"
         fit-margin-bottom="0" />
    <metadata
         id="metadata3204">
        <rdf:RDF>
            <cc:Work
                 rdf:about="">
                <dc:format>image/svg+xml</dc:format>
                <dc:type
                     rdf:resource="http://purl.org/dc/dcmitype/StillImage" />
                <dc:title />
            </cc:Work>
        </rdf:RDF>
    </metadata>
    <g
         inkscape:label="Layer 1"
         inkscape:groupmode="layer"
         id="layer1"
         transform="translate(-56.171402,-577.8513)">
        <g
             id="g3288"
             transform="matrix(0.16640267,0,0,0.16640267,46.824331,501.79811)">
            <path
                 inkscape:connector-curvature="0"
                 id="path29"
                 d="M 536.63,548.042 C 536.63,558.415 532.136,567.253 522.774,574.63 513.412,582.007 502.178,585.677 489.071,585.677 H 111.22 C 98.1133,585.677 86.9533,582.007 77.704,574.63 68.342,567.253 63.661,558.415 63.661,548.042 V 513.59 C 63.661,503.217 68.342,494.379 77.704,487.002 86.9533,479.624 98.1133,475.954 111.22,475.954 H 489.071 C 502.178,475.954 513.412,479.624 522.774,487.002 532.136,494.379 536.63,503.217 536.63,513.59 V 548.042 z"
                 style="fill:#2b3c40;fill-rule:evenodd" />
            <path
                 inkscape:connector-curvature="0"
                 id="path31"
                 d="M 535.507,533.624 535.881,554.408 C 532.885,559.276 520.528,563.957 498.433,568.451 454.244,577.439 384.216,581.109 288.349,579.498 260.263,579.011 214.951,575.641 152.038,569.387 L 66.0951,560.213 63.661,544.859 V 533.437 C 74.8954,533.325 161.662,532.426 323.925,530.816 403.315,530.179 473.717,531.115 535.507,533.624 z"
                 style="fill:#33484d;fill-rule:evenodd" />
            <path
                 inkscape:connector-curvature="0"
                 id="path33"
                 d="M 535.507,531.939 535.881,541.676 C 532.885,543.923 520.528,546.095 498.433,548.229 454.244,552.348 384.216,554.034 288.349,553.285 260.263,553.172 214.951,551.599 152.038,548.604 L 66.0951,544.297 63.661,537.182 V 531.939 C 100.996,531.565 187.614,531.115 323.925,530.629 403.315,530.366 473.717,530.816 535.507,531.939 z"
                 style="fill:#3a5159;fill-rule:evenodd" />
            <path
                 inkscape:connector-curvature="0"
                 id="path35"
                 d="M 535.881,554.408 C 534.009,563.396 528.766,570.81 519.779,576.69 510.791,582.681 500.68,585.677 489.071,585.677 H 111.22 C 100.847,585.677 91.4853,583.318 83.134,578.562 75.0078,573.806 69.3531,567.702 66.0951,560.213 71.2255,561.448 88.7513,562.272 118.709,562.647 149.042,562.909 204.091,562.909 283.856,562.647 336.283,562.385 395.451,562.534 461.734,563.021 502.927,562.759 527.643,559.913 535.881,554.408 z"
                 style="fill:#2b3c40;fill-rule:evenodd" />
            <path
                 inkscape:connector-curvature="0"
                 id="path37"
                 d="M 533.26,562.272 C 529.515,569.275 523.898,574.892 516.034,579.124 507.795,583.505 498.808,585.677 489.071,585.677 H 111.22 C 103.243,585.677 95.7543,584.179 88.7513,581.183 81.8982,578.3 76.281,574.33 71.8996,569.2 89.2383,571.072 165.145,572.009 299.584,572.009 399.196,572.009 461.36,571.522 485.326,570.511 507.795,569.5 523.898,566.766 533.26,562.272 z"
                 style="fill:#202d30;fill-rule:evenodd" />
            <path
                 inkscape:connector-curvature="0"
                 id="path39"
                 d="M 495.437,582.12 C 495.437,583.243 491.692,584.179 484.203,584.928 476.339,585.677 466.977,586.052 456.117,586.052 H 145.298 C 134.325,586.052 125.076,585.677 117.586,584.928 109.834,584.179 105.977,583.243 105.977,582.12 V 578.749 C 105.977,577.738 109.834,576.877 117.586,576.128 125.188,575.379 134.438,575.005 145.298,575.005 H 456.117 C 466.977,575.005 476.339,575.379 484.203,576.128 491.692,576.877 495.437,577.738 495.437,578.749 V 582.12 z"
                 style="fill:#202d30;fill-rule:evenodd" />
            <path
                 inkscape:connector-curvature="0"
                 id="path41"
                 d="M 489.82,583.243 C 489.82,583.992 486.075,584.666 478.96,585.303 471.47,585.79 462.483,586.052 452.372,586.052 H 153.723 C 143.35,586.052 134.438,585.79 126.948,585.303 119.571,584.666 115.901,583.992 115.901,583.243 V 580.809 C 115.901,580.06 119.571,579.423 126.948,578.937 134.438,578.3 143.35,578 153.723,578 H 452.372 C 462.483,578 471.47,578.3 478.96,578.937 486.075,579.423 489.82,580.06 489.82,580.809 V 583.243 z"
                 style="fill:#caffff;fill-rule:evenodd" />
            <path
                 inkscape:connector-curvature="0"
                 id="path43"
                 d="M 495.437,517.334 C 495.437,519.207 491.692,520.817 484.203,522.203 476.339,523.588 466.977,524.262 456.117,524.262 H 145.298 C 134.438,524.262 125.188,523.588 117.586,522.203 109.834,520.817 105.977,519.207 105.977,517.334 V 510.781 C 105.977,508.909 109.834,507.298 117.586,505.913 125.188,504.527 134.438,503.853 145.298,503.853 H 456.117 C 466.977,503.853 476.339,504.527 484.203,505.913 491.692,507.298 495.437,508.909 495.437,510.781 V 517.334 z"
                 style="fill:#202d30;fill-rule:evenodd" />
            <path
                 inkscape:connector-curvature="0"
                 id="path45"
                 d="M 491.692,516.024 C 491.692,517.26 487.948,518.346 480.458,519.207 472.968,520.068 463.981,520.518 453.495,520.518 H 148.855 C 138.257,520.518 129.195,520.106 121.705,519.207 114.216,518.346 110.471,517.26 110.471,516.024 V 512.092 C 110.471,510.856 114.216,509.77 121.705,508.909 129.195,508.047 138.257,507.598 148.855,507.598 H 453.495 C 463.981,507.598 472.968,508.047 480.458,508.909 487.948,509.77 491.692,510.856 491.692,512.092 V 516.024 z"
                 style="fill:#caffff;fill-rule:evenodd" />
            <path
                 inkscape:connector-curvature="0"
                 id="path47"
                 d="M 495.437,553.846 C 495.437,555.344 491.692,556.655 484.203,557.778 476.339,558.789 466.977,559.276 456.117,559.276 H 145.298 C 134.438,559.276 125.188,558.789 117.586,557.778 109.834,556.655 105.977,555.344 105.977,553.846 V 548.978 C 105.977,547.48 109.834,546.244 117.586,545.233 125.188,544.11 134.438,543.548 145.298,543.548 H 456.117 C 466.977,543.548 476.339,544.11 484.203,545.233 491.692,546.244 495.437,547.48 495.437,548.978 V 553.846 z"
                 style="fill:#202d30;fill-rule:evenodd" />
            <path
                 inkscape:connector-curvature="0"
                 id="path49"
                 d="M 490.569,553.472 C 490.569,554.483 486.824,555.269 479.335,555.906 471.845,556.543 462.857,556.842 452.372,556.842 H 148.668 C 138.07,556.842 129.083,556.543 121.705,555.906 114.216,555.269 110.471,554.483 110.471,553.472 V 550.663 C 110.471,549.802 114.216,548.978 121.705,548.229 129.083,547.593 138.07,547.293 148.668,547.293 H 452.372 C 462.857,547.293 471.845,547.593 479.335,548.229 486.824,548.978 490.569,549.802 490.569,550.663 V 553.472 z"
                 style="fill:#caffff;fill-rule:evenodd" />
            <polygon
                 transform="matrix(3.74481,0,0,3.74481,-208.587,295.829)"
                 id="polygon51"
                 points="199,44.75 191.1,49.75 81.15,49.75 74.25,45.15 "
                 style="fill:#3d5559;fill-rule:evenodd" />
            <path
                 inkscape:connector-curvature="0"
                 id="path53"
                 d="M 536.63,463.409 517.906,474.644 C 440.389,472.884 372.233,471.648 313.44,470.899 276.366,470.412 227.683,471.011 166.643,472.771 L 86.6913,475.767 74.8954,467.154 536.63,463.409 z"
                 style="fill:#324547;fill-rule:evenodd" />
            <polygon
                 transform="matrix(3.74481,0,0,3.74481,-208.587,295.829)"
                 id="polygon55"
                 points="192.7,49.4 196.7,51.75 76,51.4 79.7,49.05 "
                 style="fill:#202d30;fill-rule:evenodd" />
            <path
                 inkscape:connector-curvature="0"
                 id="path57"
                 d="M 523.523,487.75 C 530.264,493.255 534.758,499.921 536.256,507.785 526.145,504.303 508.17,502.056 481.956,501.045 449.002,499.659 384.965,498.985 289.473,498.985 204.84,498.348 150.615,498.124 127.135,498.236 93.1703,498.498 72.4613,500.558 64.9717,504.415 65.7206,502.056 66.9564,499.359 68.7165,496.364 L 76.0189,488.312 523.523,487.75 z"
                 style="fill:#202d30;fill-rule:evenodd" />
            <polygon
                 transform="matrix(3.74481,0,0,3.74481,-208.587,295.829)"
                 id="polygon59"
                 points="199.2,43.05 199,44.75 74.25,45.15 74.5,43.75 "
                 style="fill:#29383a;fill-rule:evenodd" />
            <polygon
                 transform="matrix(3.74481,0,0,3.74481,-208.587,295.829)"
                 id="polygon61"
                 points="74.5,44.65 199,44.25 199,44.95 74.25,45.3 "
                 style="fill:#557677;fill-rule:evenodd" />
            <path
                 style="fill:url(#radialGradient3149);fill-rule:evenodd"
                 d="M 488.322,566.766 C 536.256,570.773 560.222,575.641 560.222,581.371 560.222,586.988 536.256,591.856 488.322,595.975 440.014,599.982 381.595,601.967 313.814,601.967 246.033,601.967 187.614,599.982 139.493,595.975 91.4473,591.856 67.4058,586.988 67.4058,581.371 67.4058,575.641 91.4473,570.773 139.493,566.766 187.614,562.759 245.658,560.774 313.814,560.774 381.97,560.774 440.014,562.759 488.322,566.766 z"
                 id="path74"
                 inkscape:connector-curvature="0" />
            <path
                 style="fill:url(#radialGradient3146);fill-rule:evenodd"
                 d="M 483.079,533.624 C 531.762,538.006 556.103,543.286 556.103,549.54 556.103,555.794 531.762,561.074 483.079,565.455 434.022,569.837 374.854,572.009 306.324,572.009 237.045,572.009 178.252,569.837 129.382,565.455 80.5875,561.074 56.1714,555.794 56.1714,549.54 56.1714,543.286 80.5875,538.006 129.382,533.624 177.877,529.243 237.045,527.071 306.324,527.071 375.229,527.071 434.397,529.243 483.079,533.624 z"
                 id="path85"
                 inkscape:connector-curvature="0" />
            <path
                 style="fill:url(#radialGradient3143);fill-rule:evenodd"
                 d="M 487.948,496.176 C 536.63,500.558 560.971,505.838 560.971,512.092 560.971,518.346 536.63,523.626 487.948,528.007 438.891,532.389 379.723,534.561 311.193,534.561 241.914,534.561 183.12,532.389 134.25,528.007 85.4558,523.626 61.0396,518.346 61.0396,512.092 61.0396,505.838 85.4558,500.558 134.25,496.176 182.746,491.795 241.539,489.623 311.193,489.623 380.097,489.623 439.265,491.795 487.948,496.176 z"
                 id="path96"
                 inkscape:connector-curvature="0" />
        </g>
    </g>
</svg>
