<?xml version="1.0" encoding="UTF-8" standalone="no"?>
<!-- Created with Inkscape (http://www.inkscape.org/) -->

<svg
     xmlns:dc="http://purl.org/dc/elements/1.1/"
     xmlns:cc="http://creativecommons.org/ns#"
     xmlns:rdf="http://www.w3.org/1999/02/22-rdf-syntax-ns#"
     xmlns:svg="http://www.w3.org/2000/svg"
     xmlns="http://www.w3.org/2000/svg"
     xmlns:xlink="http://www.w3.org/1999/xlink"
     xmlns:sodipodi="http://sodipodi.sourceforge.net/DTD/sodipodi-0.dtd"
     xmlns:inkscape="http://www.inkscape.org/namespaces/inkscape"
     width="116.65"
     height="73.800003"
     id="svg3671"
     version="1.1"
     inkscape:version="0.48.5 r10040"
     sodipodi:docname="New document 1">
    <defs
         id="defs3673">
        <linearGradient
             inkscape:collect="always"
             xlink:href="#SVGID_4_"
             id="linearGradient3524"
             gradientUnits="userSpaceOnUse"
             x1="-58.299801"
             y1="0"
             x2="58.350101"
             y2="0" />
        <linearGradient
             id="SVGID_4_"
             gradientUnits="userSpaceOnUse"
             x1="-58.299801"
             y1="0"
             x2="58.350101"
             y2="0">
            <stop
                 offset="0.0863"
                 style="stop-color:#000000;stop-opacity:0.3294"
                 id="stop91" />
            <stop
                 offset="0.2275"
                 style="stop-color:#000000;stop-opacity:0.3294"
                 id="stop93" />
        </linearGradient>
        <linearGradient
             inkscape:collect="always"
             xlink:href="#SVGID_5_"
             id="linearGradient3506"
             gradientUnits="userSpaceOnUse"
             gradientTransform="matrix(2.083333e-4,1,-1,-0.001,-22.6963,-16297.155)"
             x1="16258.836"
             y1="-20.084"
             x2="16263.636"
             y2="-20.084" />
        <linearGradient
             id="SVGID_5_"
             gradientUnits="userSpaceOnUse"
             x1="16258.836"
             y1="-20.084"
             x2="16263.636"
             y2="-20.084"
             gradientTransform="matrix(2.083333e-4,1,-1,-0.001,-22.6963,-16297.155)">
            <stop
                 offset="0"
                 style="stop-color:#FFFFFF;stop-opacity:0.5137"
                 id="stop103" />
            <stop
                 offset="0.6549"
                 style="stop-color:#FFFFFF;stop-opacity:0.1765"
                 id="stop105" />
        </linearGradient>
        <linearGradient
             inkscape:collect="always"
             xlink:href="#SVGID_6_"
             id="linearGradient3508"
             gradientUnits="userSpaceOnUse"
             x1="-54.450199"
             y1="-0.57520002"
             x2="56.299801"
             y2="-0.57520002" />
        <linearGradient
             id="SVGID_6_"
             gradientUnits="userSpaceOnUse"
             x1="-54.450199"
             y1="-0.57520002"
             x2="56.299801"
             y2="-0.57520002">
            <stop
                 offset="0.0863"
                 style="stop-color:#000000;stop-opacity:0.3294"
                 id="stop110" />
            <stop
                 offset="0.2275"
                 style="stop-color:#000000;stop-opacity:0.3294"
                 id="stop112" />
        </linearGradient>
        <radialGradient
             inkscape:collect="always"
             xlink:href="#SVGID_1_"
             id="radialGradient3654"
             gradientUnits="userSpaceOnUse"
             gradientTransform="matrix(-1,0,0,-1.0488,9.765625e-4,9.765625e-4)"
             cx="0"
             cy="0"
             r="33.787498" />
        <radialGradient
             id="SVGID_1_"
             cx="0"
             cy="0"
             r="33.787498"
             gradientTransform="matrix(-1,0,0,-1.0488,9.765625e-4,9.765625e-4)"
             gradientUnits="userSpaceOnUse">
            <stop
                 offset="0"
                 style="stop-color:#CAFFFF;stop-opacity:0.8471"
                 id="stop39" />
            <stop
                 offset="0.2667"
                 style="stop-color:#BEF0F0;stop-opacity:0.4"
                 id="stop41" />
            <stop
                 offset="0.5922"
                 style="stop-color:#B7E6E6;stop-opacity:0.0941"
                 id="stop43" />
            <stop
                 offset="1"
                 style="stop-color:#B4E3E3;stop-opacity:0"
                 id="stop45" />
        </radialGradient>
        <radialGradient
             inkscape:collect="always"
             xlink:href="#SVGID_9_"
             id="radialGradient3390"
             gradientUnits="userSpaceOnUse"
             gradientTransform="matrix(1,0,0,-0.6087,0,-0.3223)"
             cx="0.17479999"
             cy="-0.20020001"
             r="78.042503" />
        <radialGradient
             id="SVGID_9_"
             cx="0.17479999"
             cy="-0.20020001"
             r="78.042503"
             gradientTransform="matrix(1,0,0,-0.6087,0,-0.3223)"
             gradientUnits="userSpaceOnUse">
            <stop
                 offset="0.3451"
                 style="stop-color:#130C0E;stop-opacity:0"
                 id="stop168" />
            <stop
                 offset="0.8471"
                 style="stop-color:#130C0E;stop-opacity:0.651"
                 id="stop170" />
            <stop
                 offset="1"
                 style="stop-color:#130C0E;stop-opacity:0.949"
                 id="stop172" />
        </radialGradient>
        <linearGradient
             inkscape:collect="always"
             xlink:href="#SVGID_10_"
             id="linearGradient3392"
             gradientUnits="userSpaceOnUse"
             x1="-43.887699"
             y1="-0.20020001"
             x2="46.887299"
             y2="-0.20020001" />
        <linearGradient
             id="SVGID_10_"
             gradientUnits="userSpaceOnUse"
             x1="-43.887699"
             y1="-0.20020001"
             x2="46.887299"
             y2="-0.20020001">
            <stop
                 offset="0"
                 style="stop-color:#E1E1E1;stop-opacity:0"
                 id="stop178" />
            <stop
                 offset="0.3059"
                 style="stop-color:#EDEDED;stop-opacity:0.2863"
                 id="stop180" />
            <stop
                 offset="0.4941"
                 style="stop-color:#EAEAEA;stop-opacity:0"
                 id="stop182" />
            <stop
                 offset="0.7294"
                 style="stop-color:#EDEDED;stop-opacity:0.2784"
                 id="stop184" />
            <stop
                 offset="0.9569"
                 style="stop-color:#E1E1E1;stop-opacity:0"
                 id="stop186" />
        </linearGradient>
        <linearGradient
             y2="0"
             x2="58.350101"
             y1="0"
             x1="-58.299801"
             gradientUnits="userSpaceOnUse"
             id="linearGradient3749"
             xlink:href="#SVGID_4_"
             inkscape:collect="always" />
        <radialGradient
             inkscape:collect="always"
             xlink:href="#SVGID_1_"
             id="radialGradient3897"
             gradientUnits="userSpaceOnUse"
             gradientTransform="matrix(-1,0,0,-1.0488,9.765625e-4,9.765625e-4)"
             cx="0"
             cy="0"
             r="33.787498" />
        <radialGradient
             inkscape:collect="always"
             xlink:href="#SVGID_1_"
             id="radialGradient3929"
             gradientUnits="userSpaceOnUse"
             gradientTransform="matrix(-2.9568,-0.3077,-0.32271576,3.1010918,370.28898,561.3799)"
             cx="0"
             cy="0"
             r="33.787498" />
        <radialGradient
             inkscape:collect="always"
             xlink:href="#SVGID_1_"
             id="radialGradient4728"
             gradientUnits="userSpaceOnUse"
             gradientTransform="matrix(-2.9568,-0.3077,-0.32271576,3.1010918,370.28898,561.3799)"
             cx="0"
             cy="0"
             r="33.787498" />
        <linearGradient
             inkscape:collect="always"
             xlink:href="#SVGID_10_"
             id="linearGradient4730"
             gradientUnits="userSpaceOnUse"
             x1="-43.887699"
             y1="-0.20020001"
             x2="46.887299"
             y2="-0.20020001" />
        <linearGradient
             inkscape:collect="always"
             xlink:href="#SVGID_4_"
             id="linearGradient4757"
             gradientUnits="userSpaceOnUse"
             x1="-58.299801"
             y1="0"
             x2="58.350101"
             y2="0" />
        <linearGradient
             inkscape:collect="always"
             xlink:href="#SVGID_5_"
             id="linearGradient4759"
             gradientUnits="userSpaceOnUse"
             gradientTransform="matrix(2.083333e-4,1,-1,-0.001,-22.6963,-16297.155)"
             x1="16258.836"
             y1="-20.084"
             x2="16263.636"
             y2="-20.084" />
        <linearGradient
             inkscape:collect="always"
             xlink:href="#SVGID_6_"
             id="linearGradient4761"
             gradientUnits="userSpaceOnUse"
             x1="-54.450199"
             y1="-0.57520002"
             x2="56.299801"
             y2="-0.57520002" />
        <radialGradient
             inkscape:collect="always"
             xlink:href="#SVGID_1_"
             id="radialGradient4763"
             gradientUnits="userSpaceOnUse"
             gradientTransform="matrix(-2.9568,-0.3077,-0.32271576,3.1010918,370.28898,561.3799)"
             cx="0"
             cy="0"
             r="33.787498" />
        <radialGradient
             inkscape:collect="always"
             xlink:href="#SVGID_9_"
             id="radialGradient4765"
             gradientUnits="userSpaceOnUse"
             gradientTransform="matrix(1,0,0,-0.6087,0,-0.3223)"
             cx="0.17479999"
             cy="-0.20020001"
             r="78.042503" />
        <linearGradient
             inkscape:collect="always"
             xlink:href="#SVGID_10_"
             id="linearGradient4767"
             gradientUnits="userSpaceOnUse"
             x1="-43.887699"
             y1="-0.20020001"
             x2="46.887299"
             y2="-0.20020001" />
        <linearGradient
             inkscape:collect="always"
             xlink:href="#SVGID_4_"
             id="linearGradient4817"
             gradientUnits="userSpaceOnUse"
             x1="-58.299801"
             y1="0"
             x2="58.350101"
             y2="0" />
        <linearGradient
             inkscape:collect="always"
             xlink:href="#SVGID_5_"
             id="linearGradient4819"
             gradientUnits="userSpaceOnUse"
             gradientTransform="matrix(2.083333e-4,1,-1,-0.001,-22.6963,-16297.155)"
             x1="16258.836"
             y1="-20.084"
             x2="16263.636"
             y2="-20.084" />
        <linearGradient
             inkscape:collect="always"
             xlink:href="#SVGID_6_"
             id="linearGradient4821"
             gradientUnits="userSpaceOnUse"
             x1="-54.450199"
             y1="-0.57520002"
             x2="56.299801"
             y2="-0.57520002" />
        <radialGradient
             inkscape:collect="always"
             xlink:href="#SVGID_1_"
             id="radialGradient4823"
             gradientUnits="userSpaceOnUse"
             gradientTransform="matrix(-2.9568,-0.3077,-0.32271576,3.1010918,370.28898,561.3799)"
             cx="0"
             cy="0"
             r="33.787498" />
        <radialGradient
             inkscape:collect="always"
             xlink:href="#SVGID_9_"
             id="radialGradient4825"
             gradientUnits="userSpaceOnUse"
             gradientTransform="matrix(1,0,0,-0.6087,0,-0.3223)"
             cx="0.17479999"
             cy="-0.20020001"
             r="78.042503" />
        <linearGradient
             inkscape:collect="always"
             xlink:href="#SVGID_10_"
             id="linearGradient4827"
             gradientUnits="userSpaceOnUse"
             x1="-43.887699"
             y1="-0.20020001"
             x2="46.887299"
             y2="-0.20020001" />
    </defs>
    <sodipodi:namedview
         id="base"
         pagecolor="#ffffff"
         bordercolor="#666666"
         borderopacity="1.0"
         inkscape:pageopacity="0.0"
         inkscape:pageshadow="2"
         inkscape:zoom="0.9"
         inkscape:cx="13.54333"
         inkscape:cy="240.52401"
         inkscape:document-units="px"
         inkscape:current-layer="layer1"
         showgrid="false"
         fit-margin-top="0"
         fit-margin-left="0"
         fit-margin-right="0"
         fit-margin-bottom="0" />
    <metadata
         id="metadata3676">
        <rdf:RDF>
            <cc:Work
                 rdf:about="">
                <dc:format>image/svg+xml</dc:format>
                <dc:type
                     rdf:resource="http://purl.org/dc/dcmitype/StillImage" />
                <dc:title></dc:title>
            </cc:Work>
        </rdf:RDF>
    </metadata>
    <g
         inkscape:label="Layer 1"
         inkscape:groupmode="layer"
         id="layer1"
         transform="translate(-314.04676,-435.7979)">
        <g
             id="g4792">
            <polygon
                 transform="matrix(1,0,0,-1,372.34676,472.6979)"
                 id="polygon3194"
                 points="58.35,-36.9 -58.3,-36.9 -58.3,36.9 58.35,36.9 "
                 style="fill:url(#linearGradient4817);fill-rule:evenodd" />
            <path
                 id="path3200"
                 d="M 317.89676,507.9479 V 438.5979 H 428.64676 V 507.9479 H 317.89676 z M 324.44676,443.6979 V 502.0979 H 420.59676 V 443.6979 H 324.44676 z"
                 style="fill:#253538;fill-rule:evenodd"
                 inkscape:connector-curvature="0" />
            <polygon
                 transform="matrix(1,0,0,-1,372.34676,472.6979)"
                 id="polygon3208"
                 points="-56.8,-36.9 -52.8,-35.25 58.35,-35.35 58.35,-36.9 "
                 style="fill:url(#linearGradient4819);fill-rule:evenodd" />
            <polygon
                 transform="matrix(1,0,0,-1,372.34676,472.6979)"
                 id="polygon3216"
                 points="-54.45,-35.25 -54.45,34.1 56.3,34.1 56.3,32.75 -52.8,32.75 -52.8,-35.25 "
                 style="fill:url(#linearGradient4821);fill-rule:evenodd" />
            <polygon
                 transform="matrix(1,0,0,-1,372.34676,472.6979)"
                 id="polygon3218"
                 points="48.7,-32.6 -45.3,-32.6 -50.45,-31.5 48.25,-31.5 "
                 style="fill:#385154;fill-rule:evenodd" />
            <polygon
                 transform="matrix(1,0,0,-1,372.34676,472.6979)"
                 id="polygon3220"
                 points="48.25,-32.25 48.25,30.75 49.2,30.75 49.2,-32.25 "
                 style="fill:#385154;fill-rule:evenodd" />
            <polygon
                 transform="matrix(1,0,0,-1,372.34676,472.6979)"
                 id="polygon3222"
                 points="48.25,-29.4 48.25,-31.5 -50.45,-31.5 -47.3,-29.25 "
                 style="fill:#1f2b2d;fill-rule:evenodd" />
            <polygon
                 transform="matrix(1,0,0,-1,372.34676,472.6979)"
                 id="polygon3224"
                 points="48.25,30.75 48.25,29 -47.9,29 -50.45,30.75 "
                 style="fill:#111719;fill-rule:evenodd" />
            <polygon
                 transform="matrix(1,0,0,-1,372.34676,472.6979)"
                 id="polygon3226"
                 points="48.25,30.75 48.25,29 -47.9,29 -47.9,-29.4 48.25,-29.4 48.25,-31.6 -50.45,-31.6 -50.45,30.75 "
                 style="fill:#1a2528;fill-rule:evenodd" />
            <g
                 transform="translate(0,-80)"
                 id="g4722">
                <path
                     inkscape:connector-curvature="0"
                     style="fill:url(#radialGradient4823);fill-rule:evenodd"
                     d="M 324.4375,523.6875 324.4375,582.09375 420.59375,582.09375 420.59375,523.6875 324.4375,523.6875 z"
                     id="polygon3544" />
                <path
                     inkscape:connector-curvature="0"
                     style="fill:#6c91a8;fill-rule:evenodd"
                     d="M 324.4375,523.6875 324.4375,582.09375 420.59375,582.09375 420.59375,528.875 C 419.61032,527.10361 418.52953,525.37086 417.34375,523.6875 L 324.4375,523.6875 z"
                     id="path3558" />
                <path
                     inkscape:connector-curvature="0"
                     style="fill:#72d6db;fill-rule:evenodd"
                     d="M 324.4375,523.6875 324.4375,527.15625 C 325.2101,529.37461 326.63159,530.18266 328.75,529.5625 330.3001,529.02742 331.71736,527.52359 332.96875,525.0625 333.30441,524.51042 333.67706,524.07185 334.0625,523.6875 L 324.4375,523.6875 z M 340.1875,523.6875 C 340.44919,523.90366 340.73198,524.13884 340.96875,524.40625 341.9822,525.20811 342.94703,525.45719 343.875,525.15625 344.08483,525.11042 344.94181,524.52407 346.125,523.6875 L 340.1875,523.6875 z M 351.78125,523.6875 C 351.44647,524.11118 350.99086,524.56941 350.4375,525.09375 348.35046,526.96874 347.57361,528.4226 348.0625,529.46875 348.88311,531.14719 350.5797,532.89046 353.1875,534.65625 355.68462,536.50916 357.40533,537.21398 358.34375,536.8125 358.75763,536.65532 358.56885,535.09715 357.78125,532.125 357.08372,529.26384 357.71338,527.44609 359.6875,526.65625 362.04768,526.00522 363.8168,525.89374 364.96875,526.3125 365.71698,526.79087 366.66816,528.07162 367.84375,530.1875 368.60771,531.46253 370.02538,533.81769 372.0625,537.21875 373.45192,540.15191 373.51488,541.92736 372.25,542.59375 369.87967,543.34236 368.30283,543.95291 367.5625,544.375 366.01241,544.91008 365.39719,545.52015 365.71875,546.25 365.96305,546.77456 367.21624,547.69994 369.46875,549.03125 371.25856,550.01253 371.69858,550.7822 370.75,551.28125 365.52154,554.62262 363.6913,557.40187 365.25,559.65625 366.11153,560.94144 367.52636,561.05427 369.53125,559.96875 371.63667,558.89369 372.90135,558.61108 373.34375,559.15625 373.50813,559.47224 374.14025,560.84859 375.1875,563.25 375.8693,565.3145 376.72687,566.52889 377.78125,566.9375 378.74524,567.23807 380.35187,567.96055 382.625,569.09375 384.34769,569.77216 385.23465,569.56405 385.25,568.46875 385.12879,566.76148 385.58938,564.75203 386.625,562.46875 386.88465,561.89801 387.10472,561.43514 387.34375,561.0625 388.30768,559.46815 389.41688,558.94227 390.65625,559.46875 391.33503,559.63802 392.58791,560.56636 394.40625,562.25 395.85914,563.59672 397.5908,564.21544 399.59375,564.125 401.31119,563.90621 405.45986,563.34669 412.03125,562.4375 417.47657,561.80864 419.98174,561.92498 419.59375,562.78125 419.1288,563.42926 418.18903,564.91007 416.75,567.25 415.53658,569.31752 415.59712,570.79237 416.90625,571.625 417.56442,571.99238 418.71433,572.65091 420.40625,573.625 420.46413,573.65821 420.53541,573.68546 420.59375,573.71875 L 420.59375,523.6875 351.78125,523.6875 z M 330.90625,549.21875 C 330.07586,549.52985 329.40149,550.29188 328.875,551.53125 L 328.65625,553.625 C 328.15231,553.67119 327.64956,553.81821 327.125,554.0625 326.27399,554.5717 325.86726,555.11693 325.90625,555.71875 326.04282,556.33073 326.06721,557.26909 326.03125,558.5625 326.32204,559.58804 326.83185,560.09134 327.53125,560.0625 328.03519,560.01632 328.95484,559.38275 330.28125,558.125 331.28122,557.13216 331.89086,556.94037 332.125,557.5625 333.35724,560.08179 334.65338,561.41912 336.03125,561.5625 337.41208,561.7062 338.25921,560.9476 338.53125,559.28125 340.32594,559.26776 341.46257,558.73172 341.96875,557.6875 342.37736,556.63312 341.91208,556.04995 340.53125,555.90625 339.44907,555.79364 339.45481,555.17401 340.5625,554.09375 341.20525,553.6615 341.90578,553.20717 342.65625,552.6875 340.573,550.67742 339.10101,549.9283 338.25,550.4375 L 335.0625,552.1875 330.90625,549.21875 z M 324.4375,554.0625 324.4375,555.75 C 324.77374,554.87611 324.84242,554.30357 324.5625,554.09375 324.5274,554.06857 324.47915,554.07814 324.4375,554.0625 z M 329.6875,563.875 C 328.82968,563.86045 327.9284,563.93821 326.96875,564.0625 326.16138,564.15531 325.31392,564.58746 324.4375,565.34375 L 324.4375,579.71875 C 324.75254,579.61439 325.04841,579.46934 325.375,579.28125 327.69618,578.02839 328.99572,577.46541 329.28125,577.59375 330.72888,578.04328 332.81251,578.9158 335.46875,580.1875 L 335.75,578.71875 C 336.3361,577.8831 337.34377,577.73415 338.78125,578.28125 340.50425,578.9567 341.69037,579.17164 342.3125,578.9375 343.0322,578.71352 343.35676,577.87402 343.3125,576.375 343.23903,572.28462 342.09148,569.85479 339.875,569.125 338.61725,567.79858 337.34039,566.70763 336.03125,565.875 334.37256,564.58158 332.26096,563.91865 329.6875,563.875 z M 350.21875,564.53125 C 349.49609,564.75493 349.23317,565.61583 349.375,567.125 349.46544,569.12796 349.44381,570.27728 349.3125,570.5625 349.26112,571.05629 348.4457,571.67306 346.875,572.40625 345.80822,573.09326 345.75427,573.71625 346.6875,574.3125 347.61057,575.00633 348.88358,575.08743 350.53125,574.5625 352.49521,573.87024 353.76286,573.61918 354.34375,573.78125 356.10768,574.06344 357.05868,574.2086 357.15625,574.21875 357.85534,574.19287 358.45194,573.75237 358.9375,572.90625 359.42306,572.06013 359.39515,571.10865 358.90625,570.0625 358.41736,569.01635 357.75189,568.40864 356.875,568.21875 356.09569,568.03902 354.75488,567.37353 352.875,566.28125 L 350.21875,564.53125 z M 399.6875,568.9375 C 398.45371,569.30525 397.64288,570.39896 397.25,572.25 396.73892,574.28899 396.17399,575.53651 395.53125,575.96875 393.84235,576.8899 392.38798,578.17214 391.21875,579.84375 390.49352,580.66408 389.98321,581.41475 389.65625,582.09375 L 416.6875,582.09375 C 416.68878,582.08257 416.68632,582.07381 416.6875,582.0625 L 416.3125,579.9375 C 414.45324,578.64712 412.40828,577.47313 410.125,576.4375 408.89578,575.81344 408.07314,574.6443 407.65625,572.90625 407.21874,571.36631 406.55344,570.58849 405.65625,570.59375 404.56095,570.5784 403.23566,570.33499 401.6875,569.875 L 399.6875,568.9375 z M 360.0625,574.96875 C 359.13454,575.2697 358.23616,575.70572 357.375,576.3125 355.27973,577.28998 354.01251,578.3793 353.59375,579.53125 353.3392,580.40093 353.28775,581.24711 353.4375,582.09375 L 359.5,582.09375 C 359.6065,581.95394 359.71335,581.81206 359.8125,581.65625 360.99189,579.88706 361.07898,577.66584 360.0625,574.96875 z M 336.8125,581.5 C 336.60664,581.71747 336.39161,581.89901 336.1875,582.09375 L 336.5625,582.09375 336.8125,581.5 z"
                     id="path3562" />
                <path
                     style="fill:#cdeaea;fill-opacity:1;fill-rule:evenodd"
                     d="M 328.15625,523.6875 C 326.70561,526.81515 325.46816,530.18381 324.4375,533.78125 L 324.4375,543.875 C 324.91363,541.08349 325.47891,538.41987 326.15625,535.875 L 343.1875,535.90625 C 342.22699,542.44669 341.73072,549.74989 341.59375,557.78125 L 324.4375,557.75 324.4375,559.25 341.5625,559.28125 C 341.55516,559.97284 341.53266,560.64129 341.53125,561.34375 A 1.1148992,1.1148992 0 0 0 341.53125,561.4375 C 342.12925,568.71889 342.9814,575.33852 344.09375,581.3125 L 326.84375,581.28125 C 325.92434,578.32837 325.12591,575.20497 324.4375,571.90625 L 324.4375,580.96875 C 324.46859,581.07243 324.4999,581.17796 324.53125,581.28125 L 324.4375,581.28125 324.4375,582.09375 420.59375,582.09375 420.59375,581.375 416.125,581.375 C 417.82704,574.79643 418.80477,567.45537 419.0625,559.34375 L 420.59375,559.34375 420.59375,557.84375 419.09375,557.84375 C 419.11212,556.95545 419.12345,556.06246 419.125,555.15625 A 1.1148992,1.1148992 0 0 0 419.125,555 C 418.2306,548.08975 416.89509,541.7519 415.125,536 L 420.59375,536.03125 420.59375,534.53125 414.65625,534.53125 C 413.38375,530.63584 411.91052,527.0281 410.21875,523.6875 L 407.6875,523.6875 C 409.43458,526.98631 410.96071,530.59262 412.28125,534.5 L 395.75,534.5 C 394.92571,530.62649 393.97946,527.02208 392.90625,523.6875 L 390.5625,523.6875 C 391.6574,526.99374 392.6221,530.60506 393.46875,534.5 L 371.375,534.46875 C 371.31352,530.60536 371.25137,527.10648 371.1875,523.6875 L 368.96875,523.6875 C 369.03275,527.10447 369.09476,530.60612 369.15625,534.46875 L 345.6875,534.4375 C 346.3123,530.57084 347.07751,526.97811 348,523.6875 L 345.75,523.6875 C 344.83942,527.01167 344.05071,530.58386 343.4375,534.4375 L 326.5625,534.40625 C 327.67474,530.53285 329.02586,526.96671 330.625,523.6875 L 328.15625,523.6875 z M 418.9375,523.6875 C 419.50605,524.58218 420.06381,525.49861 420.59375,526.4375 L 420.59375,523.6875 418.9375,523.6875 z M 345.46875,535.90625 369.1875,535.9375 C 369.28941,542.49137 369.37367,549.75514 369.46875,557.8125 L 343.8125,557.78125 C 343.95198,549.70495 344.49918,542.40781 345.46875,535.90625 z M 371.40625,535.9375 393.78125,535.96875 C 395.07291,542.26203 396.05439,549.28301 396.6875,557.0625 L 396.65625,557.0625 C 396.65755,557.31792 396.65581,557.55862 396.65625,557.8125 L 371.6875,557.8125 C 371.59245,549.75424 371.50808,542.49015 371.40625,535.9375 z M 396.0625,535.96875 412.78125,536 C 414.61696,541.77766 415.98985,548.18237 416.90625,555.25 416.90762,555.2606 416.90488,555.27065 416.90625,555.28125 416.90379,556.1456 416.89307,556.99679 416.875,557.84375 L 398.90625,557.8125 C 398.9058,557.55885 398.90755,557.31763 398.90625,557.0625 A 1.1148992,1.1148992 0 0 0 398.90625,556.96875 C 398.28276,549.26826 397.32837,542.26916 396.0625,535.96875 z M 343.78125,559.28125 369.5,559.3125 C 369.50198,559.48358 369.49802,559.60951 369.5,559.78125 369.59309,567.80228 369.64027,574.87456 369.6875,581.34375 L 346.375,581.3125 C 345.23909,575.33643 344.35706,568.69955 343.75,561.34375 343.75004,561.3219 343.74995,561.30309 343.75,561.28125 343.74908,561.27001 343.75092,561.26125 343.75,561.25 343.75162,560.57711 343.77413,559.94382 343.78125,559.28125 z M 371.71875,559.3125 396.65625,559.3125 C 396.61505,567.47427 396.10077,574.82392 395.15625,581.34375 L 371.90625,581.34375 C 371.85903,574.86014 371.81202,567.78625 371.71875,559.75 371.7169,559.58966 371.7206,559.47226 371.71875,559.3125 z M 398.875,559.3125 416.84375,559.34375 C 416.5768,567.52182 415.55171,574.86108 413.8125,581.375 L 397.40625,581.34375 C 398.34649,574.76985 398.83457,567.4419 398.875,559.3125 z"
                     id="use3932"
                     inkscape:connector-curvature="0" />
            </g>
            <polygon
                 transform="matrix(0.0636,0,0,-1,402.42216,455.298)"
                 style="fill:#b9e07c;fill-rule:evenodd"
                 points="-8.25,1 8.25,1 8.25,-1 -8.25,-1 "
                 id="polygon3445" />
            <g
                 id="g3878">
                <polygon
                     id="polygon3475"
                     points="0.85,9.4 0.85,-9.4 -0.85,-9.4 -0.85,9.4 "
                     style="fill:#b9e07c;fill-rule:evenodd"
                     transform="matrix(1.7647059,0,0,-0.269,340.5,497.83358)" />
                <polygon
                     id="polygon3469"
                     points="-1.45,-7.4 -1.45,7.4 1.45,7.4 1.45,-7.4 "
                     style="fill:#ffac48;fill-rule:evenodd"
                     transform="matrix(1.0344828,0,0,-0.79080001,334.5,494.51026)" />
                <polygon
                     id="polygon3463"
                     points="-1.351,10.75 1.3,10.75 1.3,-10.75 -1.351,-10.75 "
                     style="fill:#ffe783;fill-rule:evenodd"
                     transform="matrix(1.1316484,0,0,-0.93810001,328.52886,490.27761)" />
                <polygon
                     id="polygon3457"
                     points="1.4,-8.4 -1.4,-8.4 -1.4,8.4 1.4,8.4 "
                     style="fill:#ffac48;fill-rule:evenodd"
                     transform="matrix(1.0714286,0,0,-0.0952,346.5,499.5625)" />
                <polygon
                     id="polygon3451"
                     points="-1.55,5.05 1.55,5.05 1.55,-5.1 -1.55,-5.1 "
                     style="fill:#ffac48;fill-rule:evenodd"
                     transform="matrix(0.96774194,0,0,-0.1576,352.5,499.55842)" />
            </g>
            <polygon
                 transform="matrix(1.0192408,0,0,-1.0192408,371.82163,472.13222)"
                 style="fill:url(#radialGradient4825);fill-rule:evenodd"
                 points="48.25,29 48.25,-29.4 -47.9,-29.4 -47.9,29 "
                 id="polygon3292" />
            <polygon
                 transform="matrix(1,0,0,-1,372.34676,472.6979)"
                 style="opacity:0.07216498;fill:url(#linearGradient4827);fill-rule:evenodd"
                 points="48.25,-29.4 -47.9,-29.4 -47.9,29 48.25,29 "
                 id="polygon3308" />
        </g>
    </g>
</svg>
